<svg width="24" height="24" viewBox="0 0 24 24" fill="none" xmlns="http://www.w3.org/2000/svg">
<path d="M12 2C17.5228 2 22 6.47715 22 12C22 15.6661 20.026 18.8695 17.084 20.6104C17.0279 20.6508 16.9676 20.6855 16.9033 20.7139C15.4542 21.5311 13.7823 22 12 22C6.47715 22 2 17.5228 2 12C2 6.47715 6.47715 2 12 2ZM14.3828 14.3809C12.3179 15.0636 10.6568 16.2282 8.80664 18.0117L8.56055 18.251L7.92676 18.8848C9.12005 19.5923 10.5121 20 12 20C13.2304 20 14.3952 19.7208 15.4365 19.2246C15.2472 17.5263 14.9093 15.9389 14.3828 14.3809ZM19.8389 13.6006C18.5232 13.6215 17.3714 13.7183 16.332 13.8994C16.7703 15.2272 17.0844 16.5789 17.2939 17.9941C18.5715 16.8649 19.4865 15.3357 19.8389 13.6006ZM12.6035 10.415C10.1019 11.3315 7.39201 11.6875 4.00586 11.7393C4.00309 11.8258 4 11.9127 4 12C4 14.2052 4.89183 16.2023 6.33496 17.6494L7.1582 16.8252C9.29699 14.7203 11.2455 13.3289 13.6553 12.5146C13.3472 11.8179 12.9982 11.1204 12.6035 10.415ZM18.3281 7.1084C17.0133 8.14831 15.7435 8.97207 14.4473 9.61914C14.8867 10.417 15.2746 11.2073 15.6133 12C16.9034 11.7471 18.3381 11.6185 19.9893 11.5996C19.906 9.91162 19.2989 8.36245 18.3281 7.1084ZM8.64258 4.73828C6.57136 5.6975 4.98024 7.51552 4.32617 9.73633C7.15937 9.6738 9.44654 9.3761 11.543 8.66504C10.7267 7.41124 9.76681 6.1148 8.64258 4.73828ZM12 4C11.5577 4 11.1239 4.03644 10.7012 4.10547C11.743 5.4166 12.6447 6.66878 13.4219 7.89062C14.5879 7.32269 15.7266 6.59903 16.9062 5.68262C15.5513 4.62882 13.8494 4 12 4Z" fill="#16181A"/>
</svg>
