<svg width="139" height="29" viewBox="0 0 139 29" fill="none" xmlns="http://www.w3.org/2000/svg">
<path d="M135.366 11.592H137.862V13.872H135.366V20.016C135.366 20.592 135.462 20.976 135.654 21.168C135.846 21.36 136.23 21.456 136.806 21.456C136.998 21.456 137.182 21.448 137.358 21.432C137.534 21.416 137.702 21.392 137.862 21.36V24C137.574 24.048 137.254 24.08 136.902 24.096C136.55 24.112 136.206 24.12 135.87 24.12C135.342 24.12 134.838 24.08 134.358 24C133.894 23.936 133.478 23.8 133.11 23.592C132.758 23.384 132.478 23.088 132.27 22.704C132.062 22.32 131.958 21.816 131.958 21.192V13.872H129.894V11.592H131.958V7.872H135.366V11.592Z" fill="currentColor"/>
<path d="M121.718 11.592H124.958V13.896H125.006C125.166 13.512 125.382 13.16 125.654 12.84C125.926 12.504 126.238 12.224 126.59 12C126.942 11.76 127.318 11.576 127.718 11.448C128.118 11.32 128.534 11.256 128.966 11.256C129.19 11.256 129.438 11.296 129.71 11.376V14.544C129.55 14.512 129.358 14.488 129.134 14.472C128.91 14.44 128.694 14.424 128.486 14.424C127.862 14.424 127.334 14.528 126.902 14.736C126.47 14.944 126.118 15.232 125.846 15.6C125.59 15.952 125.406 16.368 125.294 16.848C125.182 17.328 125.126 17.848 125.126 18.408V24H121.718V11.592Z" fill="currentColor"/>
<path d="M116.456 9.864L119.24 8.808L119.888 10.656L117.056 11.592L118.832 13.944L117.248 15.12L115.472 12.648L113.792 15.12L112.184 13.944L113.96 11.592L111.176 10.656L111.824 8.808L114.536 9.864V6.864H116.456V9.864Z" fill="currentColor"/>
<path d="M97.7179 6.864H101.126V13.32H101.198C101.63 12.6 102.182 12.08 102.854 11.76C103.526 11.424 104.182 11.256 104.822 11.256C105.734 11.256 106.478 11.384 107.054 11.64C107.646 11.88 108.11 12.224 108.446 12.672C108.782 13.104 109.014 13.64 109.142 14.28C109.286 14.904 109.358 15.6 109.358 16.368V24H105.95V16.992C105.95 15.968 105.79 15.208 105.47 14.712C105.15 14.2 104.582 13.944 103.766 13.944C102.838 13.944 102.166 14.224 101.75 14.784C101.334 15.328 101.126 16.232 101.126 17.496V24H97.7179V6.864Z" fill="currentColor"/>
<path d="M85.0599 18.312C85.0599 18.888 85.1639 19.376 85.3719 19.776C85.5799 20.176 85.8519 20.504 86.1879 20.76C86.5399 21 86.9479 21.184 87.4119 21.312C87.8759 21.424 88.3559 21.48 88.8519 21.48C89.1879 21.48 89.5479 21.456 89.9319 21.408C90.3159 21.344 90.6759 21.232 91.0119 21.072C91.3479 20.912 91.6279 20.696 91.8519 20.424C92.0759 20.136 92.1879 19.776 92.1879 19.344C92.1879 18.88 92.0359 18.504 91.7319 18.216C91.4439 17.928 91.0599 17.688 90.5799 17.496C90.0999 17.304 89.5559 17.136 88.9479 16.992C88.3399 16.848 87.7239 16.688 87.0999 16.512C86.4599 16.352 85.8359 16.16 85.2279 15.936C84.6199 15.696 84.0759 15.392 83.5959 15.024C83.1159 14.656 82.7239 14.2 82.4199 13.656C82.1319 13.096 81.9879 12.424 81.9879 11.64C81.9879 10.76 82.1719 10 82.5399 9.36C82.9239 8.704 83.4199 8.16 84.0279 7.728C84.6359 7.296 85.3239 6.976 86.0919 6.768C86.8599 6.56 87.6279 6.456 88.3959 6.456C89.2919 6.456 90.1479 6.56 90.9639 6.768C91.7959 6.96 92.5319 7.28 93.1719 7.728C93.8119 8.176 94.3159 8.752 94.6839 9.456C95.0679 10.144 95.2599 10.984 95.2599 11.976H91.6119C91.5799 11.464 91.4679 11.04 91.2759 10.704C91.0999 10.368 90.8599 10.104 90.5559 9.912C90.2519 9.72 89.8999 9.584 89.4999 9.504C89.1159 9.424 88.6919 9.384 88.2279 9.384C87.9239 9.384 87.6199 9.416 87.3159 9.48C87.0119 9.544 86.7319 9.656 86.4759 9.816C86.2359 9.976 86.0359 10.176 85.8759 10.416C85.7159 10.656 85.6359 10.96 85.6359 11.328C85.6359 11.664 85.6999 11.936 85.8279 12.144C85.9559 12.352 86.2039 12.544 86.5719 12.72C86.9559 12.896 87.4759 13.072 88.1319 13.248C88.8039 13.424 89.6759 13.648 90.7479 13.92C91.0679 13.984 91.5079 14.104 92.0679 14.28C92.6439 14.44 93.2119 14.704 93.7719 15.072C94.3319 15.44 94.8119 15.936 95.2119 16.56C95.6279 17.168 95.8359 17.952 95.8359 18.912C95.8359 19.696 95.6839 20.424 95.3799 21.096C95.0759 21.768 94.6199 22.352 94.0119 22.848C93.4199 23.328 92.6759 23.704 91.7799 23.976C90.8999 24.248 89.8759 24.384 88.7079 24.384C87.7639 24.384 86.8439 24.264 85.9479 24.024C85.0679 23.8 84.2839 23.44 83.5959 22.944C82.9239 22.448 82.3879 21.816 81.9879 21.048C81.5879 20.28 81.3959 19.368 81.4119 18.312H85.0599Z" fill="currentColor"/>
<path d="M73.2441 21.072C73.7241 21.072 74.1481 20.976 74.5161 20.784C74.8841 20.592 75.1881 20.336 75.4281 20.016C75.6681 19.696 75.8441 19.336 75.9561 18.936C76.0841 18.52 76.1481 18.088 76.1481 17.64C76.1481 17.128 76.1001 16.648 76.0041 16.2C75.9081 15.736 75.7481 15.328 75.5241 14.976C75.3001 14.624 75.0041 14.344 74.6361 14.136C74.2681 13.928 73.8041 13.824 73.2441 13.824C72.7641 13.824 72.3481 13.92 71.9961 14.112C71.6601 14.304 71.3721 14.568 71.1321 14.904C70.9081 15.224 70.7401 15.6 70.6281 16.032C70.5321 16.448 70.4841 16.888 70.4841 17.352C70.4841 17.8 70.5241 18.248 70.6041 18.696C70.7001 19.128 70.8521 19.52 71.0601 19.872C71.2841 20.224 71.5721 20.512 71.9241 20.736C72.2761 20.96 72.7161 21.072 73.2441 21.072ZM79.3881 23.208C79.3881 23.704 79.3161 24.272 79.1721 24.912C79.0441 25.552 78.7561 26.144 78.3081 26.688C77.8601 27.248 77.2121 27.72 76.3641 28.104C75.5161 28.488 74.3801 28.68 72.9561 28.68C72.3481 28.68 71.7241 28.6 71.0841 28.44C70.4601 28.296 69.8841 28.064 69.3561 27.744C68.8441 27.424 68.4121 27.008 68.0601 26.496C67.7241 26 67.5321 25.4 67.4841 24.696H70.8681C71.0281 25.336 71.3401 25.776 71.8041 26.016C72.2681 26.272 72.8041 26.4 73.4121 26.4C74.3721 26.4 75.0681 26.112 75.5001 25.536C75.9481 24.96 76.1641 24.232 76.1481 23.352V21.72H76.1001C75.7321 22.376 75.2041 22.864 74.5161 23.184C73.8441 23.488 73.1321 23.64 72.3801 23.64C71.4521 23.64 70.6521 23.48 69.9801 23.16C69.3081 22.824 68.7561 22.376 68.3241 21.816C67.8921 21.24 67.5721 20.576 67.3641 19.824C67.1721 19.056 67.0761 18.248 67.0761 17.4C67.0761 16.6 67.1881 15.832 67.4121 15.096C67.6521 14.344 67.9961 13.688 68.4441 13.128C68.8921 12.552 69.4441 12.096 70.1001 11.76C70.7721 11.424 71.5401 11.256 72.4041 11.256C73.2201 11.256 73.9321 11.408 74.5401 11.712C75.1641 12.016 75.6841 12.528 76.1001 13.248H76.1481V11.592H79.3881V23.208Z" fill="currentColor"/>
<path d="M53.2335 11.592H56.4735V13.32H56.5455C56.9775 12.6 57.5375 12.08 58.2255 11.76C58.9135 11.424 59.6175 11.256 60.3375 11.256C61.2495 11.256 61.9935 11.384 62.5695 11.64C63.1615 11.88 63.6255 12.224 63.9615 12.672C64.2975 13.104 64.5295 13.64 64.6575 14.28C64.8015 14.904 64.8735 15.6 64.8735 16.368V24H61.4655V16.992C61.4655 15.968 61.3055 15.208 60.9855 14.712C60.6655 14.2 60.0975 13.944 59.2815 13.944C58.3535 13.944 57.6815 14.224 57.2655 14.784C56.8495 15.328 56.6415 16.232 56.6415 17.496V24H53.2335V11.592Z" fill="currentColor"/>
<path d="M50.55 9.672H47.142V6.864H50.55V9.672ZM47.142 11.592H50.55V24H47.142V11.592Z" fill="currentColor"/>
<path d="M33.5767 6.864H36.9847V16.056L41.2807 11.592H45.3127L40.6327 16.152L45.8407 24H41.7127L38.3047 18.456L36.9847 19.728V24H33.5767V6.864Z" fill="currentColor"/>
<path d="M27.1732 6.864H30.5812V24H27.1732V6.864Z" fill="currentColor"/>
<path d="M13.152 15.408C13.2 14.608 13.4 13.944 13.752 13.416C14.104 12.888 14.552 12.464 15.096 12.144C15.64 11.824 16.248 11.6 16.92 11.472C17.608 11.328 18.296 11.256 18.984 11.256C19.608 11.256 20.24 11.304 20.88 11.4C21.52 11.48 22.104 11.648 22.632 11.904C23.16 12.16 23.592 12.52 23.928 12.984C24.264 13.432 24.432 14.032 24.432 14.784V21.24C24.432 21.8 24.464 22.336 24.528 22.848C24.592 23.36 24.704 23.744 24.864 24H21.408C21.344 23.808 21.288 23.616 21.24 23.424C21.208 23.216 21.184 23.008 21.168 22.8C20.624 23.36 19.984 23.752 19.248 23.976C18.512 24.2 17.76 24.312 16.992 24.312C16.4 24.312 15.848 24.24 15.336 24.096C14.824 23.952 14.376 23.728 13.992 23.424C13.608 23.12 13.304 22.736 13.08 22.272C12.872 21.808 12.768 21.256 12.768 20.616C12.768 19.912 12.888 19.336 13.128 18.888C13.384 18.424 13.704 18.056 14.088 17.784C14.488 17.512 14.936 17.312 15.432 17.184C15.944 17.04 16.456 16.928 16.968 16.848C17.48 16.768 17.984 16.704 18.48 16.656C18.976 16.608 19.416 16.536 19.8 16.44C20.184 16.344 20.488 16.208 20.712 16.032C20.936 15.84 21.04 15.568 21.024 15.216C21.024 14.848 20.96 14.56 20.832 14.352C20.72 14.128 20.56 13.96 20.352 13.848C20.16 13.72 19.928 13.64 19.656 13.608C19.4 13.56 19.12 13.536 18.816 13.536C18.144 13.536 17.616 13.68 17.232 13.968C16.848 14.256 16.624 14.736 16.56 15.408H13.152ZM21.024 17.928C20.88 18.056 20.696 18.16 20.472 18.24C20.264 18.304 20.032 18.36 19.776 18.408C19.536 18.456 19.28 18.496 19.008 18.528C18.736 18.56 18.464 18.6 18.192 18.648C17.936 18.696 17.68 18.76 17.424 18.84C17.184 18.92 16.968 19.032 16.776 19.176C16.6 19.304 16.456 19.472 16.344 19.68C16.232 19.888 16.176 20.152 16.176 20.472C16.176 20.776 16.232 21.032 16.344 21.24C16.456 21.448 16.608 21.616 16.8 21.744C16.992 21.856 17.216 21.936 17.472 21.984C17.728 22.032 17.992 22.056 18.264 22.056C18.936 22.056 19.456 21.944 19.824 21.72C20.192 21.496 20.464 21.232 20.64 20.928C20.816 20.608 20.92 20.288 20.952 19.968C21 19.648 21.024 19.392 21.024 19.2V17.928Z" fill="currentColor"/>
<path d="M5.448 10.032H0.311996V6.864H14.352V10.032H9.216V24H5.448V10.032Z" fill="currentColor"/>
</svg>
