<svg width="24" height="24" viewBox="0 0 24 24" fill="none" xmlns="http://www.w3.org/2000/svg">
<path d="M12 2C17.5228 2 22 6.47715 22 12C22 17.5228 17.5228 22 12 22C6.47715 22 2 17.5228 2 12C2 6.47715 6.47715 2 12 2ZM12 4C7.58172 4 4 7.58172 4 12C4 16.4183 7.58172 20 12 20C16.4183 20 20 16.4183 20 12C20 7.58172 16.4183 4 12 4ZM12 16C12.5128 16 12.9354 16.3865 12.9932 16.8838L13 17.0098C13 17.5621 12.5523 18.0098 12 18.0098C11.4873 18.0098 11.0648 17.6241 11.0068 17.127L11 17C11 16.4477 11.4477 16 12 16ZM9.20312 7.39551C10.1266 6.17828 11.7182 5.67705 13.1729 6.14453C14.6273 6.61205 15.6284 7.94641 15.6699 9.47363C15.7096 10.9344 14.8633 12.2672 13.5186 12.8662L13.332 12.9434C13.1482 13.008 13.0204 13.1724 13 13.3613L12.998 13.4434C13.0293 13.9947 12.608 14.4668 12.0566 14.498C11.5053 14.5293 11.0332 14.108 11.002 13.5566C10.9389 12.4453 11.618 11.4265 12.6426 11.0664C13.2768 10.8239 13.6892 10.207 13.6709 9.52832C13.6525 8.8495 13.2071 8.25562 12.5605 8.04785C11.9603 7.85513 11.3074 8.03364 10.8887 8.49316L10.7969 8.60449C10.4631 9.04445 9.83549 9.13064 9.39551 8.79688C8.95555 8.46307 8.86936 7.83549 9.20312 7.39551Z" fill="#16181A"/>
</svg>
