<svg width="8" height="39" viewBox="0 0 8 39" fill="none" xmlns="http://www.w3.org/2000/svg">
<path d="M7.21683 34.9648C7.41209 35.1601 7.4121 35.4766 7.21683 35.6719L4.03519 38.8535C3.83993 39.0488 3.52342 39.0488 3.32816 38.8535L0.146521 35.6719C-0.0487401 35.4766 -0.0487388 35.1601 0.146521 34.9648C0.341784 34.7696 0.658291 34.7696 0.853553 34.9648L3.18168 37.293L3.18168 0.5C3.18168 0.223857 3.40554 -1.72995e-07 3.68168 -1.60928e-07C3.95782 -1.48857e-07 4.18168 0.223857 4.18168 0.5L4.18168 37.293L6.5098 34.9648C6.70506 34.7696 7.02157 34.7696 7.21683 34.9648Z" fill="black"/>
</svg>
