<svg width="24" height="24" viewBox="0 0 24 24" fill="none" xmlns="http://www.w3.org/2000/svg">
<path d="M18.293 4.29303C18.6836 3.90251 19.3166 3.90251 19.7071 4.29303C20.0674 4.65345 20.0949 5.22014 19.7901 5.61237L19.7071 5.70709L13.4141 12.0001L19.7071 18.293C20.0975 18.6836 20.0976 19.3166 19.7071 19.7071C19.3466 20.0676 18.7791 20.0951 18.3868 19.7901L18.293 19.7071L12.0001 13.4141L5.70711 19.7071C5.31663 20.0976 4.68358 20.0975 4.29305 19.7071C3.93256 19.3466 3.90501 18.7791 4.21004 18.3868L4.29305 18.293L10.586 12.0001L4.29305 5.70709C3.90252 5.31657 3.90252 4.68355 4.29305 4.29303C4.6535 3.93258 5.2201 3.90507 5.61238 4.21002L5.70711 4.29303L12.0001 10.586L18.293 4.29303Z" fill="#424242"/>
</svg>
